<svg xmlns="http://www.w3.org/2000/svg" aria-hidden="true" style="position:absolute;width:0;height:0;overflow:hidden"><defs><symbol id="icon-diagram" viewBox="0 0 42 32"><path fill="#2196f3" d="M19.46 19.511h1.39v6.255h-1.39v-6.255zm5.559 2.781h1.39v3.475h-1.39v-3.475zM13.9 24.377h1.39v1.39H13.9v-1.39zm-4.17-.696h1.39v2.085H9.73v-2.085z" style="fill:var(--color1, #2196f3)"/><path fill="#212121" d="M2.085 36.886h33.36a2.085 2.085 0 0 0 2.085-2.085v-2.78a2.085 2.085 0 0 0-2.085-2.085h-.695V12.604l3.947-3.739a2.097 2.097 0 1 0-.968-.982l-.005-.013-2.974 2.819V9.086a2.085 2.085 0 0 0-2.085-2.085h-27.8A2.085 2.085 0 0 0 2.78 9.086v20.85h-.695A2.085 2.085 0 0 0 0 32.021v2.78c0 1.151.933 2.085 2.085 2.085zM39.614 6.307a.695.695 0 1 1 0 1.39.695.695 0 1 1 0-1.39zM4.17 9.086c0-.384.311-.695.695-.695h27.8c.384 0 .695.311.695.695v2.919l-1.39 1.321v-2.849a.697.697 0 0 0-.696-.696H6.255a.696.696 0 0 0-.696.695v17.375c0 .384.312.695.696.695h25.019a.696.696 0 0 0 .696-.695V15.238l1.39-1.317v16.015H4.17V9.087zm6.255 9.035h-.006a2.085 2.085 0 1 0 1.45 3.583l-.001.001 2.416 1.212c.281.14.621.075.83-.16l5.135-5.778 5.048 3.783a.696.696 0 0 0 .895-.051l4.387-4.156v10.601H6.95V11.171h23.629v3.469l-4.917 4.657-5.09-3.816a.697.697 0 0 0-.937.093l-.001.001-5.206 5.858-1.946-.973c.014-.083.023-.167.026-.252a2.085 2.085 0 0 0-2.085-2.085zm.695 2.085a.695.695 0 1 1-1.39 0 .695.695 0 1 1 1.39 0zm4.17 11.12h6.95v.695a.695.695 0 0 1-.694.695h-5.56a.695.695 0 0 1-.695-.695v-.695zm-13.899.695c0-.384.311-.695.694-.695H13.9v.695c0 1.151.933 2.085 2.085 2.085h5.56a2.085 2.085 0 0 0 2.085-2.085v-.695h11.815c.384 0 .695.311.695.695v2.78a.695.695 0 0 1-.695.695H2.085a.695.695 0 0 1-.695-.695v-2.78z" style="fill:var(--color2, #212121)"/></symbol></defs></svg>